<svg width="329" height="19" viewBox="0 0 329 19" fill="none" xmlns="http://www.w3.org/2000/svg">
<path d="M7.146 1.328C8.358 1.328 9.438 1.604 10.386 2.156C11.334 2.696 12.066 3.452 12.582 4.424C13.11 5.384 13.374 6.482 13.374 7.718C13.374 8.954 13.11 10.058 12.582 11.03C12.066 11.99 11.334 12.746 10.386 13.298C9.438 13.838 8.358 14.108 7.146 14.108C5.922 14.108 4.836 13.838 3.888 13.298C2.94 12.746 2.202 11.99 1.674 11.03C1.146 10.058 0.882 8.954 0.882 7.718C0.882 6.482 1.146 5.384 1.674 4.424C2.202 3.452 2.94 2.696 3.888 2.156C4.836 1.604 5.922 1.328 7.146 1.328ZM7.146 2.048C6.03 2.048 5.058 2.288 4.23 2.768C3.402 3.236 2.766 3.896 2.322 4.748C1.878 5.6 1.656 6.59 1.656 7.718C1.656 8.834 1.878 9.824 2.322 10.688C2.766 11.54 3.402 12.206 4.23 12.686C5.058 13.166 6.03 13.406 7.146 13.406C8.25 13.406 9.21 13.166 10.026 12.686C10.854 12.206 11.49 11.54 11.934 10.688C12.378 9.824 12.6 8.834 12.6 7.718C12.6 6.59 12.378 5.6 11.934 4.748C11.49 3.896 10.854 3.236 10.026 2.768C9.21 2.288 8.25 2.048 7.146 2.048ZM7.11 3.542C6.39 3.542 5.73 3.71 5.13 4.046C4.542 4.382 4.074 4.868 3.726 5.504C3.378 6.128 3.204 6.86 3.204 7.7C3.204 8.54 3.378 9.278 3.726 9.914C4.074 10.538 4.542 11.024 5.13 11.372C5.73 11.708 6.39 11.876 7.11 11.876C8.01 11.876 8.79 11.636 9.45 11.156C10.11 10.664 10.56 10.01 10.8 9.194H9.288C8.928 10.19 8.202 10.688 7.11 10.688C6.39 10.688 5.802 10.43 5.346 9.914C4.89 9.398 4.662 8.666 4.662 7.718C4.662 6.758 4.89 6.02 5.346 5.504C5.802 4.988 6.39 4.73 7.11 4.73C7.638 4.73 8.094 4.862 8.478 5.126C8.862 5.378 9.132 5.744 9.288 6.224H10.8C10.572 5.372 10.128 4.712 9.468 4.244C8.808 3.776 8.022 3.542 7.11 3.542ZM19.9727 12.686C21.4967 11.462 22.6907 10.46 23.5547 9.68C24.4187 8.888 25.1447 8.066 25.7327 7.214C26.3327 6.35 26.6327 5.504 26.6327 4.676C26.6327 3.896 26.4407 3.284 26.0567 2.84C25.6847 2.384 25.0787 2.156 24.2387 2.156C23.4227 2.156 22.7867 2.414 22.3307 2.93C21.8867 3.434 21.6467 4.112 21.6107 4.964H20.0267C20.0747 3.62 20.4827 2.582 21.2507 1.85C22.0187 1.118 23.0087 0.751999 24.2207 0.751999C25.4567 0.751999 26.4347 1.094 27.1547 1.778C27.8867 2.462 28.2527 3.404 28.2527 4.604C28.2527 5.6 27.9527 6.572 27.3527 7.52C26.7647 8.456 26.0927 9.284 25.3367 10.004C24.5807 10.712 23.6147 11.54 22.4387 12.488H28.6307V13.856H19.9727V12.686ZM30.5242 7.358C30.5242 5.294 30.8602 3.686 31.5322 2.534C32.2042 1.37 33.3802 0.788 35.0602 0.788C36.7282 0.788 37.8982 1.37 38.5702 2.534C39.2422 3.686 39.5782 5.294 39.5782 7.358C39.5782 9.458 39.2422 11.09 38.5702 12.254C37.8982 13.418 36.7282 14 35.0602 14C33.3802 14 32.2042 13.418 31.5322 12.254C30.8602 11.09 30.5242 9.458 30.5242 7.358ZM37.9582 7.358C37.9582 6.314 37.8862 5.432 37.7422 4.712C37.6102 3.98 37.3282 3.392 36.8962 2.948C36.4762 2.504 35.8642 2.282 35.0602 2.282C34.2442 2.282 33.6202 2.504 33.1882 2.948C32.7682 3.392 32.4862 3.98 32.3422 4.712C32.2102 5.432 32.1442 6.314 32.1442 7.358C32.1442 8.438 32.2102 9.344 32.3422 10.076C32.4862 10.808 32.7682 11.396 33.1882 11.84C33.6202 12.284 34.2442 12.506 35.0602 12.506C35.8642 12.506 36.4762 12.284 36.8962 11.84C37.3282 11.396 37.6102 10.808 37.7422 10.076C37.8862 9.344 37.9582 8.438 37.9582 7.358ZM41.6289 12.686C43.1529 11.462 44.3469 10.46 45.2109 9.68C46.0749 8.888 46.8009 8.066 47.3889 7.214C47.9889 6.35 48.2889 5.504 48.2889 4.676C48.2889 3.896 48.0969 3.284 47.7129 2.84C47.3409 2.384 46.7349 2.156 45.8949 2.156C45.0789 2.156 44.4429 2.414 43.9869 2.93C43.5429 3.434 43.3029 4.112 43.2669 4.964H41.6829C41.7309 3.62 42.1389 2.582 42.9069 1.85C43.6749 1.118 44.6649 0.751999 45.8769 0.751999C47.1129 0.751999 48.0909 1.094 48.8109 1.778C49.5429 2.462 49.9089 3.404 49.9089 4.604C49.9089 5.6 49.6089 6.572 49.0089 7.52C48.4209 8.456 47.7489 9.284 46.9929 10.004C46.2369 10.712 45.2709 11.54 44.0949 12.488H50.2869V13.856H41.6289V12.686ZM51.7485 2.48V0.985999H55.1325V14H53.4765V2.48H51.7485ZM69.6209 14L66.6329 8.87H64.6529V14H63.0149V1.454H67.0649C68.0129 1.454 68.8109 1.616 69.4589 1.94C70.1189 2.264 70.6109 2.702 70.9349 3.254C71.2589 3.806 71.4209 4.436 71.4209 5.144C71.4209 6.008 71.1689 6.77 70.6649 7.43C70.1729 8.09 69.4289 8.528 68.4329 8.744L71.5829 14H69.6209ZM64.6529 7.556H67.0649C67.9529 7.556 68.6189 7.34 69.0629 6.908C69.5069 6.464 69.7289 5.876 69.7289 5.144C69.7289 4.4 69.5069 3.824 69.0629 3.416C68.6309 3.008 67.9649 2.804 67.0649 2.804H64.6529V7.556ZM82.9661 8.69C82.9661 9.002 82.9481 9.332 82.9121 9.68H75.0281C75.0881 10.652 75.4181 11.414 76.0181 11.966C76.6301 12.506 77.3681 12.776 78.2321 12.776C78.9401 12.776 79.5281 12.614 79.9961 12.29C80.4761 11.954 80.8121 11.51 81.0041 10.958H82.7681C82.5041 11.906 81.9761 12.68 81.1841 13.28C80.3921 13.868 79.4081 14.162 78.2321 14.162C77.2961 14.162 76.4561 13.952 75.7121 13.532C74.9801 13.112 74.4041 12.518 73.9841 11.75C73.5641 10.97 73.3541 10.07 73.3541 9.05C73.3541 8.03 73.5581 7.136 73.9661 6.368C74.3741 5.6 74.9441 5.012 75.6761 4.604C76.4201 4.184 77.2721 3.974 78.2321 3.974C79.1681 3.974 79.9961 4.178 80.7161 4.586C81.4361 4.994 81.9881 5.558 82.3721 6.278C82.7681 6.986 82.9661 7.79 82.9661 8.69ZM81.2741 8.348C81.2741 7.724 81.1361 7.19 80.8601 6.746C80.5841 6.29 80.2061 5.948 79.7261 5.72C79.2581 5.48 78.7361 5.36 78.1601 5.36C77.3321 5.36 76.6241 5.624 76.0361 6.152C75.4601 6.68 75.1301 7.412 75.0461 8.348H81.2741ZM84.5162 9.032C84.5162 8.024 84.7202 7.142 85.1282 6.386C85.5362 5.618 86.0942 5.024 86.8022 4.604C87.5222 4.184 88.3202 3.974 89.1962 3.974C90.0602 3.974 90.8102 4.16 91.4462 4.532C92.0822 4.904 92.5562 5.372 92.8682 5.936V4.136H94.5242V14H92.8682V12.164C92.5442 12.74 92.0582 13.22 91.4102 13.604C90.7742 13.976 90.0302 14.162 89.1782 14.162C88.3022 14.162 87.5102 13.946 86.8022 13.514C86.0942 13.082 85.5362 12.476 85.1282 11.696C84.7202 10.916 84.5162 10.028 84.5162 9.032ZM92.8682 9.05C92.8682 8.306 92.7182 7.658 92.4182 7.106C92.1182 6.554 91.7102 6.134 91.1942 5.846C90.6902 5.546 90.1322 5.396 89.5202 5.396C88.9082 5.396 88.3502 5.54 87.8462 5.828C87.3422 6.116 86.9402 6.536 86.6402 7.088C86.3402 7.64 86.1902 8.288 86.1902 9.032C86.1902 9.788 86.3402 10.448 86.6402 11.012C86.9402 11.564 87.3422 11.99 87.8462 12.29C88.3502 12.578 88.9082 12.722 89.5202 12.722C90.1322 12.722 90.6902 12.578 91.1942 12.29C91.7102 11.99 92.1182 11.564 92.4182 11.012C92.7182 10.448 92.8682 9.794 92.8682 9.05ZM98.9303 0.68V14H97.2923V0.68H98.9303ZM110.499 14.126C109.671 14.126 108.927 13.982 108.267 13.694C107.619 13.394 107.109 12.986 106.737 12.47C106.365 11.942 106.173 11.336 106.161 10.652H107.907C107.967 11.24 108.207 11.738 108.627 12.146C109.059 12.542 109.683 12.74 110.499 12.74C111.279 12.74 111.891 12.548 112.335 12.164C112.791 11.768 113.019 11.264 113.019 10.652C113.019 10.172 112.887 9.782 112.623 9.482C112.359 9.182 112.029 8.954 111.633 8.798C111.237 8.642 110.703 8.474 110.031 8.294C109.203 8.078 108.537 7.862 108.033 7.646C107.541 7.43 107.115 7.094 106.755 6.638C106.407 6.17 106.233 5.546 106.233 4.766C106.233 4.082 106.407 3.476 106.755 2.948C107.103 2.42 107.589 2.012 108.213 1.724C108.849 1.436 109.575 1.292 110.391 1.292C111.567 1.292 112.527 1.586 113.271 2.174C114.027 2.762 114.453 3.542 114.549 4.514H112.749C112.689 4.034 112.437 3.614 111.993 3.254C111.549 2.882 110.961 2.696 110.229 2.696C109.545 2.696 108.987 2.876 108.555 3.236C108.123 3.584 107.907 4.076 107.907 4.712C107.907 5.168 108.033 5.54 108.285 5.828C108.549 6.116 108.867 6.338 109.239 6.494C109.623 6.638 110.157 6.806 110.841 6.998C111.669 7.226 112.335 7.454 112.839 7.682C113.343 7.898 113.775 8.24 114.135 8.708C114.495 9.164 114.675 9.788 114.675 10.58C114.675 11.192 114.513 11.768 114.189 12.308C113.865 12.848 113.385 13.286 112.749 13.622C112.113 13.958 111.363 14.126 110.499 14.126ZM119.083 5.486V11.3C119.083 11.78 119.185 12.122 119.389 12.326C119.593 12.518 119.947 12.614 120.451 12.614H121.657V14H120.181C119.269 14 118.585 13.79 118.129 13.37C117.673 12.95 117.445 12.26 117.445 11.3V5.486H116.167V4.136H117.445V1.652H119.083V4.136H121.657V5.486H119.083ZM123.03 9.032C123.03 8.024 123.234 7.142 123.642 6.386C124.05 5.618 124.608 5.024 125.316 4.604C126.036 4.184 126.834 3.974 127.71 3.974C128.574 3.974 129.324 4.16 129.96 4.532C130.596 4.904 131.07 5.372 131.382 5.936V4.136H133.038V14H131.382V12.164C131.058 12.74 130.572 13.22 129.924 13.604C129.288 13.976 128.544 14.162 127.692 14.162C126.816 14.162 126.024 13.946 125.316 13.514C124.608 13.082 124.05 12.476 123.642 11.696C123.234 10.916 123.03 10.028 123.03 9.032ZM131.382 9.05C131.382 8.306 131.232 7.658 130.932 7.106C130.632 6.554 130.224 6.134 129.708 5.846C129.204 5.546 128.646 5.396 128.034 5.396C127.422 5.396 126.864 5.54 126.36 5.828C125.856 6.116 125.454 6.536 125.154 7.088C124.854 7.64 124.704 8.288 124.704 9.032C124.704 9.788 124.854 10.448 125.154 11.012C125.454 11.564 125.856 11.99 126.36 12.29C126.864 12.578 127.422 12.722 128.034 12.722C128.646 12.722 129.204 12.578 129.708 12.29C130.224 11.99 130.632 11.564 130.932 11.012C131.232 10.448 131.382 9.794 131.382 9.05ZM137.804 5.486V11.3C137.804 11.78 137.906 12.122 138.11 12.326C138.314 12.518 138.668 12.614 139.172 12.614H140.378V14H138.902C137.99 14 137.306 13.79 136.85 13.37C136.394 12.95 136.166 12.26 136.166 11.3V5.486H134.888V4.136H136.166V1.652H137.804V4.136H140.378V5.486H137.804ZM151.363 8.69C151.363 9.002 151.345 9.332 151.309 9.68H143.425C143.485 10.652 143.815 11.414 144.415 11.966C145.027 12.506 145.765 12.776 146.629 12.776C147.337 12.776 147.925 12.614 148.393 12.29C148.873 11.954 149.209 11.51 149.401 10.958H151.165C150.901 11.906 150.373 12.68 149.581 13.28C148.789 13.868 147.805 14.162 146.629 14.162C145.693 14.162 144.853 13.952 144.109 13.532C143.377 13.112 142.801 12.518 142.381 11.75C141.961 10.97 141.751 10.07 141.751 9.05C141.751 8.03 141.955 7.136 142.363 6.368C142.771 5.6 143.341 5.012 144.073 4.604C144.817 4.184 145.669 3.974 146.629 3.974C147.565 3.974 148.393 4.178 149.113 4.586C149.833 4.994 150.385 5.558 150.769 6.278C151.165 6.986 151.363 7.79 151.363 8.69ZM149.671 8.348C149.671 7.724 149.533 7.19 149.257 6.746C148.981 6.29 148.603 5.948 148.123 5.72C147.655 5.48 147.133 5.36 146.557 5.36C145.729 5.36 145.021 5.624 144.433 6.152C143.857 6.68 143.527 7.412 143.443 8.348H149.671ZM165.74 11.21H160.268L159.26 14H157.531L162.068 1.526H163.958L168.476 14H166.748L165.74 11.21ZM165.272 9.878L163.004 3.542L160.736 9.878H165.272ZM172.09 0.68V14H170.452V0.68H172.09ZM176.52 0.68V14H174.882V0.68H176.52ZM190.717 14L187.729 8.87H185.749V14H184.111V1.454H188.161C189.109 1.454 189.907 1.616 190.555 1.94C191.215 2.264 191.707 2.702 192.031 3.254C192.355 3.806 192.517 4.436 192.517 5.144C192.517 6.008 192.265 6.77 191.761 7.43C191.269 8.09 190.525 8.528 189.529 8.744L192.679 14H190.717ZM185.749 7.556H188.161C189.049 7.556 189.715 7.34 190.159 6.908C190.603 6.464 190.825 5.876 190.825 5.144C190.825 4.4 190.603 3.824 190.159 3.416C189.727 3.008 189.061 2.804 188.161 2.804H185.749V7.556ZM195.908 2.534C195.596 2.534 195.332 2.426 195.116 2.21C194.9 1.994 194.792 1.73 194.792 1.418C194.792 1.106 194.9 0.842 195.116 0.625999C195.332 0.409999 195.596 0.301999 195.908 0.301999C196.208 0.301999 196.46 0.409999 196.664 0.625999C196.88 0.842 196.988 1.106 196.988 1.418C196.988 1.73 196.88 1.994 196.664 2.21C196.46 2.426 196.208 2.534 195.908 2.534ZM196.7 4.136V14H195.062V4.136H196.7ZM203.559 3.974C204.411 3.974 205.155 4.16 205.791 4.532C206.439 4.904 206.919 5.372 207.231 5.936V4.136H208.887V14.216C208.887 15.116 208.695 15.914 208.311 16.61C207.927 17.318 207.375 17.87 206.655 18.266C205.947 18.662 205.119 18.86 204.171 18.86C202.875 18.86 201.795 18.554 200.931 17.942C200.067 17.33 199.557 16.496 199.401 15.44H201.021C201.201 16.04 201.573 16.52 202.137 16.88C202.701 17.252 203.379 17.438 204.171 17.438C205.071 17.438 205.803 17.156 206.367 16.592C206.943 16.028 207.231 15.236 207.231 14.216V12.146C206.907 12.722 206.427 13.202 205.791 13.586C205.155 13.97 204.411 14.162 203.559 14.162C202.683 14.162 201.885 13.946 201.165 13.514C200.457 13.082 199.899 12.476 199.491 11.696C199.083 10.916 198.879 10.028 198.879 9.032C198.879 8.024 199.083 7.142 199.491 6.386C199.899 5.618 200.457 5.024 201.165 4.604C201.885 4.184 202.683 3.974 203.559 3.974ZM207.231 9.05C207.231 8.306 207.081 7.658 206.781 7.106C206.481 6.554 206.073 6.134 205.557 5.846C205.053 5.546 204.495 5.396 203.883 5.396C203.271 5.396 202.713 5.54 202.209 5.828C201.705 6.116 201.303 6.536 201.003 7.088C200.703 7.64 200.553 8.288 200.553 9.032C200.553 9.788 200.703 10.448 201.003 11.012C201.303 11.564 201.705 11.99 202.209 12.29C202.713 12.578 203.271 12.722 203.883 12.722C204.495 12.722 205.053 12.578 205.557 12.29C206.073 11.99 206.481 11.564 206.781 11.012C207.081 10.448 207.231 9.794 207.231 9.05ZM216.552 3.956C217.296 3.956 217.968 4.118 218.568 4.442C219.168 4.754 219.636 5.228 219.972 5.864C220.32 6.5 220.494 7.274 220.494 8.186V14H218.874V8.42C218.874 7.436 218.628 6.686 218.136 6.17C217.644 5.642 216.972 5.378 216.12 5.378C215.256 5.378 214.566 5.648 214.05 6.188C213.546 6.728 213.294 7.514 213.294 8.546V14H211.656V0.68H213.294V5.54C213.618 5.036 214.062 4.646 214.626 4.37C215.202 4.094 215.844 3.956 216.552 3.956ZM225.167 5.486V11.3C225.167 11.78 225.269 12.122 225.473 12.326C225.677 12.518 226.031 12.614 226.535 12.614H227.741V14H226.265C225.353 14 224.669 13.79 224.213 13.37C223.757 12.95 223.529 12.26 223.529 11.3V5.486H222.251V4.136H223.529V1.652H225.167V4.136H227.741V5.486H225.167ZM233.218 14.162C232.462 14.162 231.784 14.036 231.184 13.784C230.584 13.52 230.11 13.16 229.762 12.704C229.414 12.236 229.222 11.702 229.186 11.102H230.878C230.926 11.594 231.154 11.996 231.562 12.308C231.982 12.62 232.528 12.776 233.2 12.776C233.824 12.776 234.316 12.638 234.676 12.362C235.036 12.086 235.216 11.738 235.216 11.318C235.216 10.886 235.024 10.568 234.64 10.364C234.256 10.148 233.662 9.938 232.858 9.734C232.126 9.542 231.526 9.35 231.058 9.158C230.602 8.954 230.206 8.66 229.87 8.276C229.546 7.88 229.384 7.364 229.384 6.728C229.384 6.224 229.534 5.762 229.834 5.342C230.134 4.922 230.56 4.592 231.112 4.352C231.664 4.1 232.294 3.974 233.002 3.974C234.094 3.974 234.976 4.25 235.648 4.802C236.32 5.354 236.68 6.11 236.728 7.07H235.09C235.054 6.554 234.844 6.14 234.46 5.828C234.088 5.516 233.584 5.36 232.948 5.36C232.36 5.36 231.892 5.486 231.544 5.738C231.196 5.99 231.022 6.32 231.022 6.728C231.022 7.052 231.124 7.322 231.328 7.538C231.544 7.742 231.808 7.91 232.12 8.042C232.444 8.162 232.888 8.3 233.452 8.456C234.16 8.648 234.736 8.84 235.18 9.032C235.624 9.212 236.002 9.488 236.314 9.86C236.638 10.232 236.806 10.718 236.818 11.318C236.818 11.858 236.668 12.344 236.368 12.776C236.068 13.208 235.642 13.55 235.09 13.802C234.55 14.042 233.926 14.162 233.218 14.162ZM250.535 14L247.547 8.87H245.567V14H243.929V1.454H247.979C248.927 1.454 249.725 1.616 250.373 1.94C251.033 2.264 251.525 2.702 251.849 3.254C252.173 3.806 252.335 4.436 252.335 5.144C252.335 6.008 252.083 6.77 251.579 7.43C251.087 8.09 250.343 8.528 249.347 8.744L252.497 14H250.535ZM245.567 7.556H247.979C248.867 7.556 249.533 7.34 249.977 6.908C250.421 6.464 250.643 5.876 250.643 5.144C250.643 4.4 250.421 3.824 249.977 3.416C249.545 3.008 248.879 2.804 247.979 2.804H245.567V7.556ZM263.88 8.69C263.88 9.002 263.862 9.332 263.826 9.68H255.942C256.002 10.652 256.332 11.414 256.932 11.966C257.544 12.506 258.282 12.776 259.146 12.776C259.854 12.776 260.442 12.614 260.91 12.29C261.39 11.954 261.726 11.51 261.918 10.958H263.682C263.418 11.906 262.89 12.68 262.098 13.28C261.306 13.868 260.322 14.162 259.146 14.162C258.21 14.162 257.37 13.952 256.626 13.532C255.894 13.112 255.318 12.518 254.898 11.75C254.478 10.97 254.268 10.07 254.268 9.05C254.268 8.03 254.472 7.136 254.88 6.368C255.288 5.6 255.858 5.012 256.59 4.604C257.334 4.184 258.186 3.974 259.146 3.974C260.082 3.974 260.91 4.178 261.63 4.586C262.35 4.994 262.902 5.558 263.286 6.278C263.682 6.986 263.88 7.79 263.88 8.69ZM262.188 8.348C262.188 7.724 262.05 7.19 261.774 6.746C261.498 6.29 261.12 5.948 260.64 5.72C260.172 5.48 259.65 5.36 259.074 5.36C258.246 5.36 257.538 5.624 256.95 6.152C256.374 6.68 256.044 7.412 255.96 8.348H262.188ZM269.534 14.162C268.778 14.162 268.1 14.036 267.5 13.784C266.9 13.52 266.426 13.16 266.078 12.704C265.73 12.236 265.538 11.702 265.502 11.102H267.194C267.242 11.594 267.47 11.996 267.878 12.308C268.298 12.62 268.844 12.776 269.516 12.776C270.14 12.776 270.632 12.638 270.992 12.362C271.352 12.086 271.532 11.738 271.532 11.318C271.532 10.886 271.34 10.568 270.956 10.364C270.572 10.148 269.978 9.938 269.174 9.734C268.442 9.542 267.842 9.35 267.374 9.158C266.918 8.954 266.522 8.66 266.186 8.276C265.862 7.88 265.7 7.364 265.7 6.728C265.7 6.224 265.85 5.762 266.15 5.342C266.45 4.922 266.876 4.592 267.428 4.352C267.98 4.1 268.61 3.974 269.318 3.974C270.41 3.974 271.292 4.25 271.964 4.802C272.636 5.354 272.996 6.11 273.044 7.07H271.406C271.37 6.554 271.16 6.14 270.776 5.828C270.404 5.516 269.9 5.36 269.264 5.36C268.676 5.36 268.208 5.486 267.86 5.738C267.512 5.99 267.338 6.32 267.338 6.728C267.338 7.052 267.44 7.322 267.644 7.538C267.86 7.742 268.124 7.91 268.436 8.042C268.76 8.162 269.204 8.3 269.768 8.456C270.476 8.648 271.052 8.84 271.496 9.032C271.94 9.212 272.318 9.488 272.63 9.86C272.954 10.232 273.122 10.718 273.134 11.318C273.134 11.858 272.984 12.344 272.684 12.776C272.384 13.208 271.958 13.55 271.406 13.802C270.866 14.042 270.242 14.162 269.534 14.162ZM284.447 8.69C284.447 9.002 284.429 9.332 284.393 9.68H276.509C276.569 10.652 276.899 11.414 277.499 11.966C278.111 12.506 278.849 12.776 279.713 12.776C280.421 12.776 281.009 12.614 281.477 12.29C281.957 11.954 282.293 11.51 282.485 10.958H284.249C283.985 11.906 283.457 12.68 282.665 13.28C281.873 13.868 280.889 14.162 279.713 14.162C278.777 14.162 277.937 13.952 277.193 13.532C276.461 13.112 275.885 12.518 275.465 11.75C275.045 10.97 274.835 10.07 274.835 9.05C274.835 8.03 275.039 7.136 275.447 6.368C275.855 5.6 276.425 5.012 277.157 4.604C277.901 4.184 278.753 3.974 279.713 3.974C280.649 3.974 281.477 4.178 282.197 4.586C282.917 4.994 283.469 5.558 283.853 6.278C284.249 6.986 284.447 7.79 284.447 8.69ZM282.755 8.348C282.755 7.724 282.617 7.19 282.341 6.746C282.065 6.29 281.687 5.948 281.207 5.72C280.739 5.48 280.217 5.36 279.641 5.36C278.813 5.36 278.105 5.624 277.517 6.152C276.941 6.68 276.611 7.412 276.527 8.348H282.755ZM288.247 5.738C288.535 5.174 288.943 4.736 289.471 4.424C290.011 4.112 290.665 3.956 291.433 3.956V5.648H291.001C289.165 5.648 288.247 6.644 288.247 8.636V14H286.609V4.136H288.247V5.738ZM296.996 12.488L300.056 4.136H301.802L297.932 14H296.024L292.154 4.136H293.918L296.996 12.488ZM312.413 8.69C312.413 9.002 312.395 9.332 312.359 9.68H304.475C304.535 10.652 304.865 11.414 305.465 11.966C306.077 12.506 306.815 12.776 307.679 12.776C308.387 12.776 308.975 12.614 309.443 12.29C309.923 11.954 310.259 11.51 310.451 10.958H312.215C311.951 11.906 311.423 12.68 310.631 13.28C309.839 13.868 308.855 14.162 307.679 14.162C306.743 14.162 305.903 13.952 305.159 13.532C304.427 13.112 303.851 12.518 303.431 11.75C303.011 10.97 302.801 10.07 302.801 9.05C302.801 8.03 303.005 7.136 303.413 6.368C303.821 5.6 304.391 5.012 305.123 4.604C305.867 4.184 306.719 3.974 307.679 3.974C308.615 3.974 309.443 4.178 310.163 4.586C310.883 4.994 311.435 5.558 311.819 6.278C312.215 6.986 312.413 7.79 312.413 8.69ZM310.721 8.348C310.721 7.724 310.583 7.19 310.307 6.746C310.031 6.29 309.653 5.948 309.173 5.72C308.705 5.48 308.183 5.36 307.607 5.36C306.779 5.36 306.071 5.624 305.483 6.152C304.907 6.68 304.577 7.412 304.493 8.348H310.721ZM313.963 9.032C313.963 8.024 314.167 7.142 314.575 6.386C314.983 5.618 315.541 5.024 316.249 4.604C316.969 4.184 317.773 3.974 318.661 3.974C319.429 3.974 320.143 4.154 320.803 4.514C321.463 4.862 321.967 5.324 322.315 5.9V0.68H323.971V14H322.315V12.146C321.991 12.734 321.511 13.22 320.875 13.604C320.239 13.976 319.495 14.162 318.643 14.162C317.767 14.162 316.969 13.946 316.249 13.514C315.541 13.082 314.983 12.476 314.575 11.696C314.167 10.916 313.963 10.028 313.963 9.032ZM322.315 9.05C322.315 8.306 322.165 7.658 321.865 7.106C321.565 6.554 321.157 6.134 320.641 5.846C320.137 5.546 319.579 5.396 318.967 5.396C318.355 5.396 317.797 5.54 317.293 5.828C316.789 6.116 316.387 6.536 316.087 7.088C315.787 7.64 315.637 8.288 315.637 9.032C315.637 9.788 315.787 10.448 316.087 11.012C316.387 11.564 316.789 11.99 317.293 12.29C317.797 12.578 318.355 12.722 318.967 12.722C319.579 12.722 320.137 12.578 320.641 12.29C321.157 11.99 321.565 11.564 321.865 11.012C322.165 10.448 322.315 9.794 322.315 9.05ZM327.262 14.108C326.95 14.108 326.686 14 326.47 13.784C326.254 13.568 326.146 13.304 326.146 12.992C326.146 12.68 326.254 12.416 326.47 12.2C326.686 11.984 326.95 11.876 327.262 11.876C327.562 11.876 327.814 11.984 328.018 12.2C328.234 12.416 328.342 12.68 328.342 12.992C328.342 13.304 328.234 13.568 328.018 13.784C327.814 14 327.562 14.108 327.262 14.108Z" fill="#375465"/>
</svg>
